<svg xmlns="http://www.w3.org/2000/svg" viewBox="0 0 640 197.45"><g id="Layer_2" data-name="Layer 2"><g id="Footer"><g id="Logo_1" data-name="Logo 1"><g id="layer1"><g id="g894"><g id="g994"><g id="g12"><polygon id="polygon4" points="269.21 0 259.86 0 241.22 46.44 253.96 46.44 258.81 46.44 264.42 27.76 264.57 27.76 264.65 27.76 270.26 46.44 274.79 46.44 287.66 46.44 269.21 0" fill="#fff"/><path id="path6" d="M439.44,23.22A23.21,23.21,0,0,0,416.23,0H405.88v13.7h10.35a9.57,9.57,0,0,1,0,19.14H405.88v13.6h10.35a23.21,23.21,0,0,0,23.21-23.21" fill="#fff"/><path id="path8" d="M479.88,23.22A23.21,23.21,0,0,1,503.09,0h10.35v13.7H503.09a9.57,9.57,0,0,0,0,19.14h10.35v13.6H503.09a23.21,23.21,0,0,1-23.21-23.21" fill="#fff"/><path id="path10" d="M359.45,16a16,16,0,0,0-5.71-12.67C349.72.13,344.32,0,339.43,0H324.74V12H341c3.06,0,5.73,1.27,5.73,4.71s-2.49,5-5.83,5H327.91l17.71,24.71h17.65L350.2,30.06a14.22,14.22,0,0,0,9.25-14" fill="#fff"/></g><g id="g26"><path id="path14" d="M264.28,105v53.91h-23V69.68h23.68l36.13,51.37V69.68h23.14v89.23H302Z" fill="#fff"/><path id="path16" d="M369.84,92.69c19.14,0,33.05,14,33.05,36v4.42h-46c1.21,6,6.83,11.5,16.46,11.5a25.61,25.61,0,0,0,15.79-5.48L397.8,152c-6.43,5.75-17.13,8.56-27,8.56-19.93,0-35.32-13-35.32-34a33.34,33.34,0,0,1,32.84-33.85C368.8,92.67,369.32,92.67,369.84,92.69Zm-13.24,27h26.62a12.42,12.42,0,0,0-13.38-11.1,12.76,12.76,0,0,0-13.24,11.1Z" fill="#fff"/><path id="path18" d="M444.11,92.69c13.92,0,22.61,6.16,26.48,11.91L457.21,117A14.09,14.09,0,0,0,445,110.89a14.61,14.61,0,0,0-15.15,14,14.2,14.2,0,0,0,0,1.6,14.72,14.72,0,0,0,13.62,15.75c.5,0,1,.05,1.5,0a14.53,14.53,0,0,0,12.17-6.28l13.38,12.57c-3.88,5.62-12.57,11.91-26.48,11.91-20.21,0-35.33-13.65-35.33-34S423.9,92.69,444.11,92.69Z" fill="#fff"/><path id="path20" d="M484.25,141.52V112.21h-10.7V94.3h10.7V76.63h20.48V94.3h13.11v17.91H504.73v23.55a5.87,5.87,0,0,0,5.12,6.52l.63,0a8,8,0,0,0,5.22-1.61l4,15.52c-2.54,2.41-7.62,4.28-15.25,4.28C491.34,160.52,484.25,154,484.25,141.52Z" fill="#fff"/><path id="path22" d="M566.27,152.5a26.69,26.69,0,0,1-20.07,8c-9.9,0-22.21-6.69-22.21-21.27,0-15.65,12.31-20.34,22.21-20.34,8.56,0,16.19,2.68,20.07,7.49v-8.16c0-5.62-4.82-9.36-13.11-9.36a28.79,28.79,0,0,0-18.33,6.83l-7.36-13a45.53,45.53,0,0,1,29.3-10c15.52,0,30.11,5.76,30.11,25.82v40.4H566.27Zm0-15.92A14.66,14.66,0,0,0,554.76,132c-5.48,0-10.3,2.4-10.3,7.49s4.82,7.49,10.3,7.49a14.33,14.33,0,0,0,11.51-4.68Z" fill="#fff"/><path id="path24" d="M599.19,94.3h20.6v8.16A28.17,28.17,0,0,1,640,92.69v19.93a16.81,16.81,0,0,0-5.08-.66c-5.36,0-12.45,2.27-15.12,6v41H599.19Z" fill="#fff"/></g><g id="g36"><g id="g32"><polygon id="polygon28" points="168.18 93.35 194.77 46.67 168.18 0 114.99 0 88.4 46.67 114.99 93.35 168.18 93.35" fill="#fff"/><polygon id="polygon30" points="168.18 196.92 194.77 150.24 168.18 103.57 114.99 103.57 88.4 150.24 114.99 196.92 168.18 196.92" fill="#fff"/></g><polygon id="polygon34" points="79.78 145.13 106.37 98.46 79.78 51.78 26.59 51.78 0 98.46 26.59 145.13 79.78 145.13" fill="#fff"/></g><g id="g64"><path id="path38" d="M251,187.46h-4.12v9.46h-5.62v-26.4h12.35a8.22,8.22,0,0,1,8.85,7.54,7.85,7.85,0,0,1,0,1,7.58,7.58,0,0,1-5.78,7.84l5.94,10h-6.45Zm1.78-12.11h-5.9v7.28h5.9a3.65,3.65,0,1,0,.6-7.28A3,3,0,0,0,252.74,175.35Z" fill="#fff"/><path id="path40" d="M273.65,177.33c5.7,0,9.58,4.27,9.58,10.53V189H269a5.15,5.15,0,0,0,5.5,4.43,7.85,7.85,0,0,0,5.11-1.91l2.22,3.24a11.92,11.92,0,0,1-7.88,2.65,10,10,0,1,1-.41-20.06h.08Zm-4.71,8.23h9.42a4.43,4.43,0,0,0-4.6-4.24h-.11A4.59,4.59,0,0,0,268.94,185.56Z" fill="#fff"/><path id="path42" d="M287,190.9a10.93,10.93,0,0,0,6.62,2.62c2.18,0,3.2-.76,3.2-1.94,0-1.35-1.66-1.82-3.82-2.26-3.28-.63-7.52-1.42-7.52-6,0-3.2,2.81-6,7.83-6A12.2,12.2,0,0,1,301,180l-2,3.44a8,8,0,0,0-5.66-2.21c-1.82,0-3,.67-3,1.78s1.5,1.62,3.64,2c3.28.64,7.68,1.51,7.68,6.26,0,3.48-3,6.13-8.27,6.13a12.84,12.84,0,0,1-8.55-3Z" fill="#fff"/><path id="path44" d="M313.64,177.33c5.7,0,9.58,4.27,9.58,10.53V189H309a5.16,5.16,0,0,0,5.51,4.43,7.85,7.85,0,0,0,5.1-1.91l2.22,3.24a11.92,11.92,0,0,1-7.88,2.65,10,10,0,1,1-.41-20.06h.08Zm-4.71,8.23h9.42a4.43,4.43,0,0,0-4.61-4.24h-.1a4.59,4.59,0,0,0-4.71,4.23Z" fill="#fff"/><path id="path46" d="M338,195a7.88,7.88,0,0,1-6.05,2.46,6.37,6.37,0,0,1-6.65-6.08c0-.08,0-.17,0-.25a6.07,6.07,0,0,1,6-6.13c.22,0,.45,0,.67,0a7.71,7.71,0,0,1,6.05,2.34v-2.65c0-1.94-1.66-3.21-4.2-3.21a8.06,8.06,0,0,0-5.58,2.25l-1.9-3.36a12.59,12.59,0,0,1,8.36-3c4.35,0,8.35,1.74,8.35,7.24v12.33h-5Zm0-5a5,5,0,0,0-4-1.67c-2,0-3.6,1-3.6,2.89s1.62,2.81,3.6,2.81a5,5,0,0,0,4-1.66Z" fill="#fff"/><path id="path48" d="M347.57,177.8h5v2.61a8.17,8.17,0,0,1,6.09-3v4.91a6.16,6.16,0,0,0-6.09,2v12.62h-5Z" fill="#fff"/><path id="path50" d="M370.34,177.33a8.87,8.87,0,0,1,7.56,3.44l-3.28,3.09a4.63,4.63,0,0,0-4-2.06,5.57,5.57,0,0,0,0,11.12,4.82,4.82,0,0,0,4-2.06l3.28,3a8.82,8.82,0,0,1-7.56,3.48,10,10,0,0,1-.33-20.07h.35Z" fill="#fff"/><path id="path52" d="M393.74,185.28c0-2.65-1.38-3.48-3.55-3.48a5.59,5.59,0,0,0-4.36,2.26v12.86h-5v-26.4h5v9.78a8.85,8.85,0,0,1,6.74-3,5.51,5.51,0,0,1,6.19,4.72,6.17,6.17,0,0,1,0,1.29v13.58h-5Z" fill="#fff"/><path id="path54" d="M412,183.74A13.36,13.36,0,0,1,425,170.08c.26,0,.53,0,.79,0a12.19,12.19,0,0,1,11.25,6.45l-4.83,2.37a7.24,7.24,0,0,0-6.42-3.84,8.69,8.69,0,0,0,0,17.34,7.15,7.15,0,0,0,6.42-3.84l4.83,2.34a12.28,12.28,0,0,1-11.25,6.49A13.36,13.36,0,0,1,412,184.54C412,184.27,412,184,412,183.74Z" fill="#fff"/><path id="path56" d="M439.91,170.52h5v26.4h-5Z" fill="#fff"/><path id="path58" d="M448.31,187.34a10.11,10.11,0,1,1,10.15,10.06h0a9.69,9.69,0,0,1-10.1-9.24C448.3,187.88,448.3,187.61,448.31,187.34Zm15,0a4.93,4.93,0,1,0-4.91,5.58,5,5,0,0,0,4.94-5.15A3.22,3.22,0,0,0,463.31,187.34Z" fill="#fff"/><path id="path60" d="M484.77,194.51A9,9,0,0,1,478,197.4a5.46,5.46,0,0,1-6.15-4.67,5,5,0,0,1,0-1.34V177.8h5v11.6a3.07,3.07,0,0,0,2.55,3.52,3.16,3.16,0,0,0,1,0,5.63,5.63,0,0,0,4.36-2.18v-13h5v19.12h-5Z" fill="#fff"/><path id="path62" d="M507.54,194.47a7.45,7.45,0,0,1-5.9,2.93c-4.83,0-8.46-3.64-8.46-10s3.6-10,8.46-10a7.36,7.36,0,0,1,5.9,2.93v-9.74h5.07v26.4h-5.07Zm0-10.49a5.49,5.49,0,0,0-4.36-2.19,5.62,5.62,0,0,0,0,11.12,5.45,5.45,0,0,0,4.36-2.18Z" fill="#fff"/></g></g></g></g></g></g></g></svg>