<svg xmlns="http://www.w3.org/2000/svg" viewBox="0 0 88.01 100"><g id="Layer_2" data-name="Layer 2"><g id="environment-datascience"><path d="M44.35,1c6.73,0,13.94,19.69,13.94,49S51.08,99,44.35,99,30.41,79.31,30.41,50,37.61,1,44.35,1m0-1C36.1,0,29.41,22.39,29.41,50s6.69,50,14.94,50S59.29,77.61,59.29,50,52.6,0,44.35,0Z"/><path d="M9,22.88H9c9.81,0,25.91,5.78,42,15.08C76.42,52.61,89.86,68.7,86.5,74.53c-1.27,2.2-4.72,2.66-7.38,2.66-9.81,0-25.91-5.78-42-15.09C11.71,47.45-1.74,31.36,1.63,25.53,2.89,23.34,6.34,22.88,9,22.88m0-1c-4.11,0-7,1-8.25,3.15C-3.36,32.18,12.68,49.16,36.59,63c16.75,9.67,32.92,15.22,42.53,15.22,4.1,0,7-1,8.24-3.16,4.13-7.14-11.91-24.13-35.83-37.94C34.78,27.42,18.61,21.88,9,21.88Z"/><path d="M79,22.14v1h0c2.67,0,6.12.46,7.38,2.65,3.37,5.83-10.08,21.92-35.46,36.57C34.8,71.67,18.7,77.45,8.9,77.45c-2.67,0-6.12-.46-7.39-2.66C-1.85,69,11.59,52.87,37,38.22c16.11-9.3,32.21-15.08,42-15.08v-1m0,0c-9.6,0-25.77,5.54-42.52,15.21C12.56,51.16-3.48,68.15.65,75.29c1.23,2.14,4.14,3.16,8.25,3.16,9.6,0,25.77-5.55,42.52-15.22,23.91-13.81,40-30.79,35.83-37.94C86,23.15,83.11,22.14,79,22.14Z"/><circle cx="35.04" cy="86.6" r="3.73" fill="#b3b3b3"/><circle cx="80.55" cy="39.71" r="3.73" fill="#b3b3b3"/><circle cx="19.64" cy="24.07" r="3.73" fill="#b3b3b3"/><path d="M44.35,51.35c3.86,0,6.6-1.48,6.83-2.88V47.11A11.39,11.39,0,0,1,44.35,49a11.42,11.42,0,0,1-6.84-1.92v1.26C37.63,49.8,40.4,51.35,44.35,51.35Z" fill="#8e489b"/><path d="M44.35,55.18c3.86,0,6.6-1.48,6.83-2.88V50.94a11.46,11.46,0,0,1-6.83,1.91,11.42,11.42,0,0,1-6.84-1.92V52.2C37.63,53.63,40.4,55.18,44.35,55.18Z" fill="#8e489b"/><path d="M44.35,47.53c3.88,0,6.63-1.51,6.83-2.92,0-1.8-3.08-3.26-6.83-3.26s-6.81,1.46-6.84,3.26C37.71,46,40.46,47.53,44.35,47.53Z" fill="#8e489b"/><path d="M44.35,56.68a11.42,11.42,0,0,1-6.84-1.92v.61c0,1.81,3.06,3.28,6.84,3.28s6.83-1.47,6.83-3.28v-.6A11.46,11.46,0,0,1,44.35,56.68Z" fill="#8e489b"/></g></g></svg>