<svg xmlns="http://www.w3.org/2000/svg" viewBox="0 0 100 100"><g id="Layer_2" data-name="Layer 2"><g id="environment-r"><circle cx="50" cy="50" r="50" fill="#75aadb"/><path d="M67.11,66h5.42v4.21H64.25L50.54,49.61H43.22V66h7.15v4.21h-18V66h6.18V29.72L32.38,29V25a29.47,29.47,0,0,0,6.92.9c3.84,0,7.77-.9,11.61-.9,7.45,0,14.38,3.39,14.38,11.67,0,6.41-3.84,10.47-9.8,12.2ZM43.22,45.54l3.93.08c9.57.15,13.25-3.53,13.25-8.44,0-5.73-4.15-8-9.41-8a71.29,71.29,0,0,0-7.77.53Z" fill="#fff"/><path d="M50,1A49,49,0,1,1,1,50,49.05,49.05,0,0,1,50,1m0-1a50,50,0,1,0,50,50A50,50,0,0,0,50,0Z"/></g></g></svg>