<svg xmlns="http://www.w3.org/2000/svg" xmlns:xlink="http://www.w3.org/1999/xlink" viewBox="0 0 100 100"><defs><linearGradient id="linear-gradient" x1="25.57" y1="76.54" x2="55.24" y2="46.77" gradientTransform="matrix(1, 0, 0, -1, 0, 102)" gradientUnits="userSpaceOnUse"><stop offset="0" stop-color="#387eb8"/><stop offset="1" stop-color="#366994"/></linearGradient><linearGradient id="linear-gradient-2" x1="43.82" y1="57.59" x2="75.68" y2="27.06" gradientTransform="matrix(1, 0, 0, -1, 0, 102)" gradientUnits="userSpaceOnUse"><stop offset="0" stop-color="#ffe052"/><stop offset="1" stop-color="#ffc331"/></linearGradient></defs><g id="Layer_2" data-name="Layer 2"><g id="environment-scipy"><circle cx="50" cy="50" r="49.5" fill="#fff"/><path d="M50,1A49,49,0,1,1,1,50,49.05,49.05,0,0,1,50,1m0-1a50,50,0,1,0,50,50A50,50,0,0,0,50,0Z"/><path d="M49.73,20.1c-15.23,0-14.28,6.61-14.28,6.61l0,6.84H50v2.06H29.69S20,34.5,20,49.87s8.5,14.82,8.5,14.82h5.08V57.56s-.27-8.5,8.37-8.5H56.32s8.1.13,8.1-7.83V28.07S65.65,20.1,49.73,20.1Zm-8,4.6a2.62,2.62,0,1,1-2.62,2.63h0A2.62,2.62,0,0,1,41.72,24.7Z" fill="url(#linear-gradient)"/><path d="M50.16,79.79c15.23,0,14.28-6.61,14.28-6.61V66.34H49.89v-2H70.2S80,65.39,80,50,71.44,35.2,71.44,35.2H66.36v7.13s.28,8.51-8.37,8.51H43.58s-8.1-.13-8.1,7.83V71.83S34.25,79.79,50.16,79.79Zm8-4.6a2.62,2.62,0,0,1-2.62-2.61h0a2.62,2.62,0,1,1,2.62,2.62Z" fill="url(#linear-gradient-2)"/></g></g></svg>