<svg xmlns="http://www.w3.org/2000/svg" xmlns:xlink="http://www.w3.org/1999/xlink" viewBox="0 0 100 100"><defs><clipPath id="clip-path"><circle cx="50" cy="50" r="28.55" fill="none"/></clipPath></defs><g id="Layer_2" data-name="Layer 2"><g id="environment-scipy"><circle cx="50" cy="50" r="49.5" fill="#fff"/><path d="M50,1A49,49,0,1,1,1,50,49.05,49.05,0,0,1,50,1m0-1a50,50,0,1,0,50,50A50,50,0,0,0,50,0Z"/><path id="tongue" d="M76.4,39.27l1.46-.68,1-2.69,1,.36L79,38.67l2.46.84-.37,1-2.75-1-1.51.7" fill="#0054a6" fill-rule="evenodd"/><path id="circle" d="M50,21.45A28.55,28.55,0,0,0,21.45,50h0a28.6,28.6,0,0,0,3.42,13.55,2.48,2.48,0,0,1,.48.17,3.14,3.14,0,0,1,1.39,1.15,1.88,1.88,0,0,1,.26.87,1.46,1.46,0,0,1-.22.86A28.55,28.55,0,1,0,50,21.45Z" fill="#0054a6"/><g clip-path="url(#clip-path)"><path id="snake" d="M60.61,53.75c-2-2.69-5.85-4.26-9.18-5a26.8,26.8,0,0,1-7-2.18,6.38,6.38,0,0,1-2.73-6.51,7.8,7.8,0,0,1,8.57-6.33,7.46,7.46,0,0,1,4.93,2.89l4.53,6c2.59,3.34,5.51,4.33,8.68,2.76L70,44.62a.63.63,0,0,1,.53-.1c.26.08.38.29.52.55s.29.49.56.55a1,1,0,0,0,.8-.15l3.56-3.4c.65-.55.46-1.06.46-1.06l-.89-2s-.24-.48-1.08-.37l-4.94.45a.82.82,0,0,0-.65.53.75.75,0,0,0,0,.51l.17.56a.55.55,0,0,1-.32.69l-1.4.59A3.59,3.59,0,0,1,63,40.9l-1.26-1.68-3.61-4.79a11.21,11.21,0,0,0-20,5.13,9.43,9.43,0,0,0,2.28,8.3c2.31,2.64,6.81,3.65,10.71,4.54.41.1,1.59.39,2.28.64a11.5,11.5,0,0,1,3.32,1.76h0a6.7,6.7,0,0,1,1.87,5.73,6.88,6.88,0,0,1-12.28,3.15L42,57.93a5.76,5.76,0,0,0-8.08-1.13l-9,6.75a6.69,6.69,0,0,0,1.9,3.06l9.33-7a2.19,2.19,0,0,1,1.51-.35,2.16,2.16,0,0,1,1.41.83l4.58,6.16A10.52,10.52,0,0,0,50.3,70a10.62,10.62,0,0,0,12-8.94,10.37,10.37,0,0,0-1.67-7.33" fill="#fff" fill-rule="evenodd"/></g></g></g></svg>