<svg xmlns="http://www.w3.org/2000/svg" viewBox="0 0 100 100"><g id="Layer_2" data-name="Layer 2"><g id="environment-standard"><rect x="0.5" y="0.5" width="99" height="99" rx="5.5" fill="#fff"/><path d="M94,1a5,5,0,0,1,5,5V94a5,5,0,0,1-5,5H6a5,5,0,0,1-5-5V6A5,5,0,0,1,6,1H94m0-1H6A6,6,0,0,0,0,6V94a6,6,0,0,0,6,6H94a6,6,0,0,0,6-6V6a6,6,0,0,0-6-6Z"/><path d="M.5,12.64V6A5.51,5.51,0,0,1,6,.5H94A5.51,5.51,0,0,1,99.5,6v6.64Z" fill="#ccc"/><path d="M94,1a5,5,0,0,1,5,5v6.14H1V6A5,5,0,0,1,6,1H94m0-1H6A6,6,0,0,0,0,6v7.14H100V6a6,6,0,0,0-6-6Z"/><circle cx="7" cy="6.5" r="2.54" fill="#969696"/><circle cx="13.6" cy="6.5" r="2.54" fill="#969696"/><circle cx="20.2" cy="6.5" r="2.54" fill="#969696"/><rect x="68.32" y="65.34" width="16.05" height="3.42" fill="#8e489b"/><path d="M51.1,64.47l13.31-8.81v-.19L51.1,46.66V42.37L68.32,53.88v3.37L51.1,68.76Z" fill="#8e489b"/><g id="Canvas"><g id="Group"><g id="Group-2" data-name="Group"><g id="g"><g id="path"><g id="path16_fill" data-name="path16 fill"><path id="path7_fill" data-name="path7 fill" d="M41.78,40.43a2.06,2.06,0,0,1-.28,1.19,2.1,2.1,0,0,1-3.22.5,2.07,2.07,0,0,1-.63-1,2.12,2.12,0,0,1,.06-1.22,2.15,2.15,0,0,1,.73-1,2.11,2.11,0,0,1,1.16-.4,2,2,0,0,1,.8.11,2,2,0,0,1,.7.42,2.07,2.07,0,0,1,.48.65,1.92,1.92,0,0,1,.2.78Z" fill="#767677"/></g></g><g id="path-2" data-name="path"><g id="path17_fill" data-name="path17 fill"><path id="path8_fill" data-name="path8 fill" d="M29.55,64.66c-5.57,0-10.47-2-13-4.95a13.85,13.85,0,0,0,26,0C40,62.67,35.14,64.66,29.55,64.66Z" fill="#f37726"/></g></g><g id="path-3" data-name="path"><g id="path18_fill" data-name="path18 fill"><path id="path9_fill" data-name="path9 fill" d="M29.55,45.47c5.56,0,10.46,2,13,5a13.86,13.86,0,0,0-26,0C19.08,47.47,24,45.47,29.55,45.47Z" fill="#f37726"/></g></g><g id="path-4" data-name="path"><g id="path19_fill" data-name="path19 fill"><path id="path10_fill" data-name="path10 fill" d="M21.88,70.41a2.65,2.65,0,0,1-.36,1.5,2.59,2.59,0,0,1-1.13,1,2.64,2.64,0,0,1-3.71-1.73,2.61,2.61,0,0,1,.08-1.54,2.55,2.55,0,0,1,.92-1.23,2.61,2.61,0,0,1,1.45-.52,2.51,2.51,0,0,1,1,.15,2.63,2.63,0,0,1,.88.52,2.74,2.74,0,0,1,.61.82,2.58,2.58,0,0,1,.25,1Z" fill="#9e9e9e"/></g></g><g id="path-5" data-name="path"><g id="path20_fill" data-name="path20 fill"><path id="path11_fill" data-name="path11 fill" d="M17.19,44.8A1.53,1.53,0,0,1,15.64,43a1.59,1.59,0,0,1,.39-.79,1.53,1.53,0,0,1,1.64-.39,1.63,1.63,0,0,1,.71.53,1.69,1.69,0,0,1,.29.84,1.52,1.52,0,0,1-.42,1.09A1.55,1.55,0,0,1,17.19,44.8Z" fill="#616262"/></g></g></g></g></g></g></g></g></svg>