<svg xmlns="http://www.w3.org/2000/svg" viewBox="0 0 100 100"><g id="Layer_2" data-name="Layer 2"><g id="environment-standard"><rect x="0.5" y="0.5" width="99" height="99" rx="2.5" fill="#f2f2f2"/><path d="M97,1a2,2,0,0,1,2,2V97a2,2,0,0,1-2,2H3a2,2,0,0,1-2-2V3A2,2,0,0,1,3,1H97m0-1H3A3,3,0,0,0,0,3V97a3,3,0,0,0,3,3H97a3,3,0,0,0,3-3V3a3,3,0,0,0-3-3Z"/><rect x="50.87" y="69.77" width="23.84" height="5.08" fill="#8e489b"/><path d="M25.29,68.47,45.06,55.39v-.27L25.29,42V35.66L50.87,52.75v5L25.29,74.85Z" fill="#8e489b"/><path d="M.5,12.64V3A2.5,2.5,0,0,1,3,.5H97A2.5,2.5,0,0,1,99.5,3v9.64Z" fill="#ccc"/><path d="M97,1a2,2,0,0,1,2,2v9.14H1V3A2,2,0,0,1,3,1H97m0-1H3A3,3,0,0,0,0,3V13.14H100V3a3,3,0,0,0-3-3Z"/><circle cx="6.87" cy="6.57" r="3.17"/><circle cx="15.1" cy="6.57" r="3.17"/><circle cx="23.33" cy="6.57" r="3.17"/></g></g></svg>