<svg xmlns="http://www.w3.org/2000/svg" viewBox="0 0 100 100"><g id="Layer_2" data-name="Layer 2"><g id="environement-default"><circle cx="50" cy="50" r="49.5" fill="#fff"/><path d="M50,1A49,49,0,1,1,1,50,49.05,49.05,0,0,1,50,1m0-1a50,50,0,1,0,50,50A50,50,0,0,0,50,0Z"/><g id="Canvas"><g id="Group"><g id="Group-2" data-name="Group"><g id="Group-3" data-name="Group"><g id="g"><g id="path"><g id="path9_fill" data-name="path9 fill"><path id="path0_fill" data-name="path0 fill" d="M22.45,51.61c0,2.19-.17,2.9-.62,3.43a2.75,2.75,0,0,1-1.83.7L20.18,57A4.32,4.32,0,0,0,23,56a5,5,0,0,0,1.1-3.75V43.91H22.45v7.7Z" fill="#4e4e4e"/></g></g><g id="path-2" data-name="path"><g id="path10_fill" data-name="path10 fill"><path id="path1_fill" data-name="path1 fill" d="M35,50.62a23.89,23.89,0,0,0,.08,2.5H33.55l-.1-1.49a3.53,3.53,0,0,1-3.05,1.71c-1.45,0-3.17-.79-3.17-4V44H28.9v5c0,1.74.54,2.91,2.06,2.91a2.3,2.3,0,0,0,.9-.18,2.24,2.24,0,0,0,.78-.51,2.33,2.33,0,0,0,.68-1.68V43.92H35v6.65Z" fill="#4e4e4e"/></g></g><g id="path-3" data-name="path"><g id="path11_fill" data-name="path11 fill"><path id="path2_fill" data-name="path2 fill" d="M38.14,47c0-1.16,0-2.11-.08-3h1.51l.07,1.56A3.6,3.6,0,0,1,41,44.21a3.51,3.51,0,0,1,1.88-.44c2.23,0,3.91,1.87,3.91,4.65,0,3.27-2,4.9-4.2,4.9A3.23,3.23,0,0,1,41,53a3.33,3.33,0,0,1-1.23-1.1h0v5H38.14V47Zm1.65,2.44a3.83,3.83,0,0,0,.08.68,2.52,2.52,0,0,0,.92,1.4,2.58,2.58,0,0,0,1.58.54c1.76,0,2.8-1.44,2.8-3.53,0-1.83-1-3.39-2.74-3.39a2.87,2.87,0,0,0-2.64,2.74Z" fill="#4e4e4e"/></g></g><g id="path-4" data-name="path"><g id="path12_fill" data-name="path12 fill"><path id="path3_fill" data-name="path3 fill" d="M49.81,44l2,5.39c.21.6.44,1.33.59,1.87.17-.56.36-1.26.59-1.91L54.83,44H56.6l-2.51,6.5c-1.25,3.13-2,4.75-3.16,5.72a4.6,4.6,0,0,1-2.06,1.08l-.41-1.4a4.6,4.6,0,0,0,1.47-.81,5.06,5.06,0,0,0,1.41-1.86,1.12,1.12,0,0,0,.14-.4,1.67,1.67,0,0,0-.11-.44L48,44h1.83Z" fill="#4e4e4e"/></g></g><g id="path-5" data-name="path"><g id="path13_fill" data-name="path13 fill"><path id="path4_fill" data-name="path4 fill" d="M61.05,41.35V44h2.4v1.25h-2.4v4.93c0,1.13.32,1.78,1.25,1.78a4,4,0,0,0,1-.11l.07,1.25a4.18,4.18,0,0,1-1.49.22,2.34,2.34,0,0,1-1-.15,2.32,2.32,0,0,1-.83-.55,3.37,3.37,0,0,1-.65-2.38v-5H58V44h1.45V41.74Z" fill="#4e4e4e"/></g></g><g id="path-6" data-name="path"><g id="path14_fill" data-name="path14 fill"><path id="path5_fill" data-name="path5 fill" d="M66.54,48.84a3.11,3.11,0,0,0,.17,1.25,2.91,2.91,0,0,0,1.75,1.75,3.11,3.11,0,0,0,1.25.17,6,6,0,0,0,2.5-.48l.29,1.25a7.35,7.35,0,0,1-3.07.57,4.27,4.27,0,0,1-1.8-.27,4.24,4.24,0,0,1-2.49-2.53,4.3,4.3,0,0,1-.24-1.81c0-2.75,1.64-4.93,4.32-4.93,3,0,3.75,2.63,3.75,4.31a5,5,0,0,1,0,.77H66.5Zm4.91-1.25a2.42,2.42,0,0,0-.07-1,2.52,2.52,0,0,0-.48-.88,2.25,2.25,0,0,0-.8-.6,2.23,2.23,0,0,0-1-.22,2.78,2.78,0,0,0-1.81.85,2.82,2.82,0,0,0-.76,1.85Z" fill="#4e4e4e"/></g></g><g id="path-7" data-name="path"><g id="path15_fill" data-name="path15 fill"><path id="path6_fill" data-name="path6 fill" d="M75.52,46.82c0-1.07,0-2-.08-2.85H77v1.79H77a2.78,2.78,0,0,1,.93-1.4,2.75,2.75,0,0,1,1.57-.6,1.93,1.93,0,0,1,.48,0v1.56a2.81,2.81,0,0,0-.58,0A2.37,2.37,0,0,0,77.9,46a2.39,2.39,0,0,0-.72,1.49,4.9,4.9,0,0,0-.07.77v4.87H75.46V46.84Z" fill="#4e4e4e"/></g></g></g></g><g id="g-2" data-name="g"><g id="path-8" data-name="path"><g id="path16_fill" data-name="path16 fill"><path id="path7_fill" data-name="path7 fill" d="M74.78,18.84a4.12,4.12,0,0,1-.57,2.4,4.24,4.24,0,0,1-6.5,1A4.26,4.26,0,0,1,72,15.09a4.19,4.19,0,0,1,2.39,2.16,4,4,0,0,1,.4,1.59Z" fill="#767677"/></g></g><g id="path-9" data-name="path"><g id="path17_fill" data-name="path17 fill"><path id="path8_fill" data-name="path8 fill" d="M50,67.85c-11.27,0-21.17-4-26.29-10a28,28,0,0,0,52.57,0C71.21,63.81,61.35,67.85,50,67.85Z" fill="#f37726"/></g></g><g id="path-10" data-name="path"><g id="path18_fill" data-name="path18 fill"><path id="path9_fill-2" data-name="path9 fill" d="M50,29c11.26,0,21.16,4,26.28,10a28,28,0,0,0-52.57,0C28.87,33.06,38.72,29,50,29Z" fill="#f37726"/></g></g><g id="path-11" data-name="path"><g id="path19_fill" data-name="path19 fill"><path id="path10_fill-2" data-name="path10 fill" d="M34.53,79.47a5.26,5.26,0,0,1-.72,3A5.35,5.35,0,0,1,24,81.11a5.35,5.35,0,1,1,10.52-1.64Z" fill="#9e9e9e"/></g></g><g id="path-12" data-name="path"><g id="path20_fill" data-name="path20 fill"><path id="path11_fill-2" data-name="path11 fill" d="M25,27.67a3,3,0,0,1-1.72-.47,3.1,3.1,0,0,1-1.17-1.34,3.08,3.08,0,1,1,5.05.82A3.12,3.12,0,0,1,25,27.67Z" fill="#616262"/></g></g></g></g></g></g></g></g></svg>